;TYPE=PLATED
;Layer: PTH_Through
;EasyEDA Pro v2.2.47.7, 2026-05-01 11:58:30
;Gerber Generator version 0.3
M48
METRIC,LZ,0000.00000
;Hole size 1 = 0.50000 METRIC
T01C0.50000
;Hole size 2 = 0.60000 METRIC
T02C0.60000
;Hole size 3 = 0.70000 METRIC
T03C0.70000
;Hole size 4 = 0.80000 METRIC
T04C0.80000
;Hole size 5 = 1.10002 METRIC
T05C1.10002
;Hole size 6 = 1.20000 METRIC
T06C1.20000
%
G05
G90
T01
X-98.552Y51.81295
X-98.552Y29.21295
X-45.59605Y56.007
X-68.19605Y56.007
X-50.292Y66.167
X-47.752Y66.167
X-101.727Y63.627
X-91.567Y63.627
X-89.027Y63.627
X-89.027Y66.167
X-86.487Y63.627
X-66.167Y63.627
X-63.627Y63.627
X-53.467Y63.627
T02
X-73.787Y43.7675
X-73.787Y46.05962
X-95.0435Y56.261
X-92.70058Y56.261
T03
X-67.818Y47.244
X-67.818Y44.704
X-67.818Y42.164
X-67.818Y39.624
X-67.818Y37.084
X-67.818Y34.544
X-67.818Y32.004
X-67.818Y29.464
X-52.578Y29.464
X-52.578Y32.004
X-52.578Y34.544
X-52.578Y37.084
X-52.578Y39.624
X-52.578Y42.164
X-52.578Y44.704
X-52.578Y47.244
T04
X-80.772Y27.686
X-80.772Y30.226
X-88.18199Y42.164
X-80.98201Y42.164
X-88.30899Y51.689
X-81.10901Y51.689
X-88.05499Y36.576
X-80.85501Y36.576
X-88.30899Y46.99
X-81.10901Y46.99
X-88.265Y27.686
X-88.265Y30.226
X-73.787Y39.624
X-73.787Y37.084
X-86.3981Y56.261
X-83.5152Y56.261
T05
X-45.212Y66.167
X-101.727Y66.167
X-99.187Y63.627
X-99.187Y66.167
X-96.647Y63.627
X-96.647Y66.167
X-94.107Y63.627
X-94.107Y66.167
X-91.567Y66.167
X-81.407Y63.627
X-81.407Y66.167
X-78.867Y63.627
X-78.867Y66.167
X-76.327Y63.627
X-76.327Y66.167
X-73.787Y63.627
X-73.787Y66.167
X-71.247Y63.627
X-71.247Y66.167
X-68.707Y63.627
X-68.707Y66.167
X-66.167Y66.167
X-63.627Y66.167
X-61.087Y66.167
X-58.547Y66.167
T06
X-63.246Y11.811
X-63.246Y14.351
X-63.246Y16.891
X-63.246Y19.431
X-63.246Y21.971
X-63.246Y24.511
M30