G04 Layer: TopSilkscreenLayer*
G04 EasyEDA Pro v2.2.47.7, 2026-05-01 11:58:30*
G04 Gerber Generator version 0.3*
G04 Scale: 100 percent, Rotated: No, Reflected: No*
G04 Dimensions in millimeters*
G04 Leading zeros omitted, absolute positions, 4 integers and 5 decimals*
G04 Generated by one-click*
G04 Object Configs: Pad,Via,Track,Text,Image,Dimension,BoardOutline,BoardCutout,CopperFilled,SolidRegion,FPCStiffener,Line,PlaneZone,ComponentProperty,ComponentSilkscreen,TearDrop*
G04 Layer Configs: 1,2,3,4,5,6,7,8,9,10,11,13,14,56*
G04 Copper Areas: 0*
%FSLAX45Y45*%
%MOMM*%
%ADD10C,0.1524*%
%ADD11C,0.2032*%
%ADD12C,0.1016*%
%ADD13C,0.254*%
%ADD14C,0.8703*%
G75*


G04 Text Start*
G54D10*
G01X-9285567Y5283675D02*
G01X-9350591Y5283675D01*
G01X-9285567Y5283675D02*
G01X-9285567Y5243543D01*
G01X-9316555Y5283675D02*
G01X-9316555Y5258783D01*
G01X-9285567Y5213317D02*
G01X-9350591Y5213317D01*
G01X-9285567Y5170137D02*
G01X-9350591Y5170137D01*
G01X-9316555Y5213317D02*
G01X-9316555Y5170137D01*
G01X-9301061Y5136863D02*
G01X-9298013Y5136863D01*
G01X-9291663Y5133815D01*
G01X-9288615Y5130767D01*
G01X-9285567Y5124671D01*
G01X-9285567Y5112225D01*
G01X-9288615Y5105875D01*
G01X-9291663Y5102827D01*
G01X-9298013Y5099779D01*
G01X-9304109Y5099779D01*
G01X-9310205Y5102827D01*
G01X-9319603Y5109177D01*
G01X-9350591Y5139911D01*
G01X-9350591Y5096731D01*
G01X-8316338Y2697002D02*
G01X-8322688Y2693954D01*
G01X-8328784Y2687604D01*
G01X-8331832Y2681508D01*
G01X-8331832Y2669062D01*
G01X-8328784Y2662966D01*
G01X-8322688Y2656616D01*
G01X-8316338Y2653568D01*
G01X-8307194Y2650520D01*
G01X-8291700Y2650520D01*
G01X-8282302Y2653568D01*
G01X-8276206Y2656616D01*
G01X-8269856Y2662966D01*
G01X-8266808Y2669062D01*
G01X-8266808Y2681508D01*
G01X-8269856Y2687604D01*
G01X-8276206Y2693954D01*
G01X-8282302Y2697002D01*
G01X-8331832Y2764312D02*
G01X-8331832Y2733324D01*
G01X-8304146Y2730276D01*
G01X-8307194Y2733324D01*
G01X-8310242Y2742468D01*
G01X-8310242Y2751866D01*
G01X-8307194Y2761264D01*
G01X-8300844Y2767360D01*
G01X-8291700Y2770408D01*
G01X-8285350Y2770408D01*
G01X-8276206Y2767360D01*
G01X-8269856Y2761264D01*
G01X-8266808Y2751866D01*
G01X-8266808Y2742468D01*
G01X-8269856Y2733324D01*
G01X-8273158Y2730276D01*
G01X-8279254Y2727228D01*
G01X-8870574Y4426034D02*
G01X-8870574Y4361010D01*
G01X-8870574Y4426034D02*
G01X-8842634Y4426034D01*
G01X-8833490Y4422986D01*
G01X-8830442Y4419938D01*
G01X-8827140Y4413588D01*
G01X-8827140Y4407492D01*
G01X-8830442Y4401396D01*
G01X-8833490Y4398348D01*
G01X-8842634Y4395046D01*
G01X-8870574Y4395046D01*
G01X-8848984Y4395046D02*
G01X-8827140Y4361010D01*
G01X-8766180Y4426034D02*
G01X-8796914Y4382854D01*
G01X-8750686Y4382854D01*
G01X-8766180Y4426034D02*
G01X-8766180Y4361010D01*
G01X-8895080Y5402834D02*
G01X-8895080Y5337810D01*
G01X-8895080Y5402834D02*
G01X-8867140Y5402834D01*
G01X-8857996Y5399786D01*
G01X-8854948Y5396738D01*
G01X-8851646Y5390388D01*
G01X-8851646Y5384292D01*
G01X-8854948Y5378196D01*
G01X-8857996Y5375148D01*
G01X-8867140Y5371846D01*
G01X-8895080Y5371846D01*
G01X-8873490Y5371846D02*
G01X-8851646Y5337810D01*
G01X-8821420Y5390388D02*
G01X-8815324Y5393690D01*
G01X-8806180Y5402834D01*
G01X-8806180Y5337810D01*
G01X-8857874Y3867234D02*
G01X-8857874Y3802210D01*
G01X-8857874Y3867234D02*
G01X-8829934Y3867234D01*
G01X-8820790Y3864186D01*
G01X-8817742Y3861138D01*
G01X-8814440Y3854788D01*
G01X-8814440Y3848692D01*
G01X-8817742Y3842596D01*
G01X-8820790Y3839548D01*
G01X-8829934Y3836246D01*
G01X-8857874Y3836246D01*
G01X-8836284Y3836246D02*
G01X-8814440Y3802210D01*
G01X-8781166Y3851740D02*
G01X-8781166Y3854788D01*
G01X-8778118Y3861138D01*
G01X-8775070Y3864186D01*
G01X-8768974Y3867234D01*
G01X-8756528Y3867234D01*
G01X-8750178Y3864186D01*
G01X-8747130Y3861138D01*
G01X-8744082Y3854788D01*
G01X-8744082Y3848692D01*
G01X-8747130Y3842596D01*
G01X-8753480Y3833198D01*
G01X-8784214Y3802210D01*
G01X-8741034Y3802210D01*
G01X-8883274Y4908634D02*
G01X-8883274Y4843610D01*
G01X-8883274Y4908634D02*
G01X-8855334Y4908634D01*
G01X-8846190Y4905586D01*
G01X-8843142Y4902538D01*
G01X-8839840Y4896188D01*
G01X-8839840Y4890092D01*
G01X-8843142Y4883996D01*
G01X-8846190Y4880948D01*
G01X-8855334Y4877646D01*
G01X-8883274Y4877646D01*
G01X-8861684Y4877646D02*
G01X-8839840Y4843610D01*
G01X-8803518Y4908634D02*
G01X-8769482Y4908634D01*
G01X-8788024Y4883996D01*
G01X-8778880Y4883996D01*
G01X-8772530Y4880948D01*
G01X-8769482Y4877646D01*
G01X-8766434Y4868502D01*
G01X-8766434Y4862152D01*
G01X-8769482Y4853008D01*
G01X-8775578Y4846658D01*
G01X-8784976Y4843610D01*
G01X-8794374Y4843610D01*
G01X-8803518Y4846658D01*
G01X-8806566Y4849960D01*
G01X-8809614Y4856056D01*
G01X-9065638Y2697002D02*
G01X-9071988Y2693954D01*
G01X-9078084Y2687604D01*
G01X-9081132Y2681508D01*
G01X-9081132Y2669062D01*
G01X-9078084Y2662966D01*
G01X-9071988Y2656616D01*
G01X-9065638Y2653568D01*
G01X-9056494Y2650520D01*
G01X-9041000Y2650520D01*
G01X-9031602Y2653568D01*
G01X-9025506Y2656616D01*
G01X-9019156Y2662966D01*
G01X-9016108Y2669062D01*
G01X-9016108Y2681508D01*
G01X-9019156Y2687604D01*
G01X-9025506Y2693954D01*
G01X-9031602Y2697002D01*
G01X-9081132Y2733324D02*
G01X-9081132Y2767360D01*
G01X-9056494Y2748818D01*
G01X-9056494Y2757962D01*
G01X-9053446Y2764312D01*
G01X-9050144Y2767360D01*
G01X-9041000Y2770408D01*
G01X-9034650Y2770408D01*
G01X-9025506Y2767360D01*
G01X-9019156Y2761264D01*
G01X-9016108Y2751866D01*
G01X-9016108Y2742468D01*
G01X-9019156Y2733324D01*
G01X-9022458Y2730276D01*
G01X-9028554Y2727228D01*
G54D11*
G01X-6038012Y4669993D02*
G01X-6158154Y4669993D01*
G01X-6038012Y4710125D02*
G01X-6038012Y4630115D01*
G01X-6038012Y4582363D02*
G01X-6158154Y4582363D01*
G01X-6038012Y4582363D02*
G01X-6038012Y4530801D01*
G01X-6043854Y4513783D01*
G01X-6049442Y4507941D01*
G01X-6060872Y4502353D01*
G01X-6072302Y4502353D01*
G01X-6083732Y4507941D01*
G01X-6089574Y4513783D01*
G01X-6095162Y4530801D01*
G01X-6095162Y4582363D02*
G01X-6095162Y4530801D01*
G01X-6101004Y4513783D01*
G01X-6106592Y4507941D01*
G01X-6118022Y4502353D01*
G01X-6135294Y4502353D01*
G01X-6146724Y4507941D01*
G01X-6152312Y4513783D01*
G01X-6158154Y4530801D01*
G01X-6158154Y4582363D01*
G01X-6055284Y4386021D02*
G01X-6043854Y4391609D01*
G01X-6038012Y4408881D01*
G01X-6038012Y4420311D01*
G01X-6043854Y4437329D01*
G01X-6060872Y4448759D01*
G01X-6089574Y4454601D01*
G01X-6118022Y4454601D01*
G01X-6140882Y4448759D01*
G01X-6152312Y4437329D01*
G01X-6158154Y4420311D01*
G01X-6158154Y4414469D01*
G01X-6152312Y4397451D01*
G01X-6140882Y4386021D01*
G01X-6123864Y4380179D01*
G01X-6118022Y4380179D01*
G01X-6101004Y4386021D01*
G01X-6089574Y4397451D01*
G01X-6083732Y4414469D01*
G01X-6083732Y4420311D01*
G01X-6089574Y4437329D01*
G01X-6101004Y4448759D01*
G01X-6118022Y4454601D01*
G01X-6055284Y4263847D02*
G01X-6043854Y4269435D01*
G01X-6038012Y4286707D01*
G01X-6038012Y4298137D01*
G01X-6043854Y4315155D01*
G01X-6060872Y4326585D01*
G01X-6089574Y4332427D01*
G01X-6118022Y4332427D01*
G01X-6140882Y4326585D01*
G01X-6152312Y4315155D01*
G01X-6158154Y4298137D01*
G01X-6158154Y4292295D01*
G01X-6152312Y4275277D01*
G01X-6140882Y4263847D01*
G01X-6123864Y4258005D01*
G01X-6118022Y4258005D01*
G01X-6101004Y4263847D01*
G01X-6089574Y4275277D01*
G01X-6083732Y4292295D01*
G01X-6083732Y4298137D01*
G01X-6089574Y4315155D01*
G01X-6101004Y4326585D01*
G01X-6118022Y4332427D01*
G01X-6060872Y4210253D02*
G01X-6055284Y4198823D01*
G01X-6038012Y4181551D01*
G01X-6158154Y4181551D01*
G01X-6066714Y4127957D02*
G01X-6060872Y4127957D01*
G01X-6049442Y4122369D01*
G01X-6043854Y4116527D01*
G01X-6038012Y4105097D01*
G01X-6038012Y4082237D01*
G01X-6043854Y4070807D01*
G01X-6049442Y4065219D01*
G01X-6060872Y4059377D01*
G01X-6072302Y4059377D01*
G01X-6083732Y4065219D01*
G01X-6101004Y4076649D01*
G01X-6158154Y4133799D01*
G01X-6158154Y4053789D01*
G01X-6038012Y4006037D02*
G01X-6158154Y4006037D01*
G01X-6038012Y4006037D02*
G01X-6038012Y3931615D01*
G01X-6095162Y4006037D02*
G01X-6095162Y3960317D01*
G01X-6038012Y3883863D02*
G01X-6158154Y3883863D01*
G01X-6038012Y3883863D02*
G01X-6158154Y3803853D01*
G01X-6038012Y3803853D02*
G01X-6158154Y3803853D01*
G01X-6066714Y3670249D02*
G01X-6055284Y3676091D01*
G01X-6043854Y3687521D01*
G01X-6038012Y3698951D01*
G01X-6038012Y3721811D01*
G01X-6043854Y3733241D01*
G01X-6055284Y3744671D01*
G01X-6066714Y3750259D01*
G01X-6083732Y3756101D01*
G01X-6112434Y3756101D01*
G01X-6129452Y3750259D01*
G01X-6140882Y3744671D01*
G01X-6152312Y3733241D01*
G01X-6158154Y3721811D01*
G01X-6158154Y3698951D01*
G01X-6152312Y3687521D01*
G01X-6140882Y3676091D01*
G01X-6129452Y3670249D01*
G01X-6112434Y3670249D01*
G01X-6112434Y3698951D02*
G01X-6112434Y3670249D01*
G54D12*
G01X-5697220Y4749013D02*
G01X-5697220Y4705833D01*
G01X-5697220Y4749013D02*
G01X-5678678Y4749013D01*
G01X-5672328Y4746981D01*
G01X-5670296Y4744949D01*
G01X-5668264Y4740885D01*
G01X-5668264Y4734789D01*
G01X-5670296Y4730471D01*
G01X-5672328Y4728439D01*
G01X-5678678Y4726407D01*
G01X-5697220Y4726407D01*
G01X-5648198Y4749013D02*
G01X-5637784Y4705833D01*
G01X-5627624Y4749013D02*
G01X-5637784Y4705833D01*
G01X-5627624Y4749013D02*
G01X-5617210Y4705833D01*
G01X-5606796Y4749013D02*
G01X-5617210Y4705833D01*
G01X-5586730Y4749013D02*
G01X-5586730Y4705833D01*
G01X-5586730Y4749013D02*
G01X-5570220Y4705833D01*
G01X-5553710Y4749013D02*
G01X-5570220Y4705833D01*
G01X-5553710Y4749013D02*
G01X-5553710Y4705833D01*
G01X-5517134Y4749013D02*
G01X-5533644Y4705833D01*
G01X-5517134Y4749013D02*
G01X-5500624Y4705833D01*
G01X-5527548Y4720311D02*
G01X-5506720Y4720311D01*
G01X-5680710Y4495013D02*
G01X-5697220Y4451833D01*
G01X-5680710Y4495013D02*
G01X-5664200Y4451833D01*
G01X-5691124Y4466311D02*
G01X-5670296Y4466311D01*
G01X-5644134Y4495013D02*
G01X-5644134Y4451833D01*
G01X-5624068Y4495013D02*
G01X-5624068Y4451833D01*
G01X-5624068Y4495013D02*
G01X-5595112Y4451833D01*
G01X-5595112Y4495013D02*
G01X-5595112Y4451833D01*
G01X-5573014Y4484853D02*
G01X-5573014Y4486885D01*
G01X-5570982Y4490949D01*
G01X-5568950Y4492981D01*
G01X-5564632Y4495013D01*
G01X-5556504Y4495013D01*
G01X-5552440Y4492981D01*
G01X-5550154Y4490949D01*
G01X-5548122Y4486885D01*
G01X-5548122Y4482821D01*
G01X-5550154Y4478503D01*
G01X-5554472Y4472407D01*
G01X-5575046Y4451833D01*
G01X-5546090Y4451833D01*
G01X-5668264Y3980917D02*
G01X-5672328Y3984981D01*
G01X-5678678Y3987013D01*
G01X-5686806Y3987013D01*
G01X-5693156Y3984981D01*
G01X-5697220Y3980917D01*
G01X-5697220Y3976853D01*
G01X-5695188Y3972789D01*
G01X-5693156Y3970503D01*
G01X-5688838Y3968471D01*
G01X-5676646Y3964407D01*
G01X-5672328Y3962375D01*
G01X-5670296Y3960343D01*
G01X-5668264Y3956279D01*
G01X-5668264Y3949929D01*
G01X-5672328Y3945865D01*
G01X-5678678Y3943833D01*
G01X-5686806Y3943833D01*
G01X-5693156Y3945865D01*
G01X-5697220Y3949929D01*
G01X-5633720Y3987013D02*
G01X-5633720Y3943833D01*
G01X-5648198Y3987013D02*
G01X-5619242Y3987013D01*
G01X-5599176Y3987013D02*
G01X-5599176Y3943833D01*
G01X-5599176Y3987013D02*
G01X-5580634Y3987013D01*
G01X-5574284Y3984981D01*
G01X-5572252Y3982949D01*
G01X-5570220Y3978885D01*
G01X-5570220Y3974821D01*
G01X-5572252Y3970503D01*
G01X-5574284Y3968471D01*
G01X-5580634Y3966439D01*
G01X-5599176Y3966439D02*
G01X-5580634Y3966439D01*
G01X-5574284Y3964407D01*
G01X-5572252Y3962375D01*
G01X-5570220Y3958311D01*
G01X-5570220Y3951961D01*
G01X-5572252Y3947897D01*
G01X-5574284Y3945865D01*
G01X-5580634Y3943833D01*
G01X-5599176Y3943833D01*
G01X-5550154Y3987013D02*
G01X-5533644Y3966439D01*
G01X-5533644Y3943833D01*
G01X-5517134Y3987013D02*
G01X-5533644Y3966439D01*
G01X-5680710Y4241013D02*
G01X-5697220Y4197833D01*
G01X-5680710Y4241013D02*
G01X-5664200Y4197833D01*
G01X-5691124Y4212311D02*
G01X-5670296Y4212311D01*
G01X-5644134Y4241013D02*
G01X-5644134Y4197833D01*
G01X-5624068Y4241013D02*
G01X-5624068Y4197833D01*
G01X-5624068Y4241013D02*
G01X-5595112Y4197833D01*
G01X-5595112Y4241013D02*
G01X-5595112Y4197833D01*
G01X-5575046Y4232885D02*
G01X-5570982Y4234917D01*
G01X-5564632Y4241013D01*
G01X-5564632Y4197833D01*
G01X-5697220Y3733013D02*
G01X-5697220Y3689833D01*
G01X-5697220Y3733013D02*
G01X-5678678Y3733013D01*
G01X-5672328Y3730981D01*
G01X-5670296Y3728949D01*
G01X-5668264Y3724885D01*
G01X-5668264Y3720821D01*
G01X-5670296Y3716503D01*
G01X-5672328Y3714471D01*
G01X-5678678Y3712439D01*
G01X-5697220Y3712439D02*
G01X-5678678Y3712439D01*
G01X-5672328Y3710407D01*
G01X-5670296Y3708375D01*
G01X-5668264Y3704311D01*
G01X-5668264Y3697961D01*
G01X-5670296Y3693897D01*
G01X-5672328Y3691865D01*
G01X-5678678Y3689833D01*
G01X-5697220Y3689833D01*
G01X-5648198Y3733013D02*
G01X-5648198Y3689833D01*
G01X-5628132Y3733013D02*
G01X-5628132Y3689833D01*
G01X-5628132Y3733013D02*
G01X-5599176Y3689833D01*
G01X-5599176Y3733013D02*
G01X-5599176Y3689833D01*
G01X-5579110Y3724885D02*
G01X-5575046Y3726917D01*
G01X-5568696Y3733013D01*
G01X-5568696Y3689833D01*
G01X-5697220Y3479013D02*
G01X-5697220Y3435833D01*
G01X-5697220Y3479013D02*
G01X-5678678Y3479013D01*
G01X-5672328Y3476981D01*
G01X-5670296Y3474949D01*
G01X-5668264Y3470885D01*
G01X-5668264Y3466821D01*
G01X-5670296Y3462503D01*
G01X-5672328Y3460471D01*
G01X-5678678Y3458439D01*
G01X-5697220Y3458439D02*
G01X-5678678Y3458439D01*
G01X-5672328Y3456407D01*
G01X-5670296Y3454375D01*
G01X-5668264Y3450311D01*
G01X-5668264Y3443961D01*
G01X-5670296Y3439897D01*
G01X-5672328Y3437865D01*
G01X-5678678Y3435833D01*
G01X-5697220Y3435833D01*
G01X-5648198Y3479013D02*
G01X-5648198Y3435833D01*
G01X-5628132Y3479013D02*
G01X-5628132Y3435833D01*
G01X-5628132Y3479013D02*
G01X-5599176Y3435833D01*
G01X-5599176Y3479013D02*
G01X-5599176Y3435833D01*
G01X-5577078Y3468853D02*
G01X-5577078Y3470885D01*
G01X-5575046Y3474949D01*
G01X-5573014Y3476981D01*
G01X-5568696Y3479013D01*
G01X-5560568Y3479013D01*
G01X-5556504Y3476981D01*
G01X-5554218Y3474949D01*
G01X-5552186Y3470885D01*
G01X-5552186Y3466821D01*
G01X-5554218Y3462503D01*
G01X-5558536Y3456407D01*
G01X-5579110Y3435833D01*
G01X-5550154Y3435833D01*
G01X-5666232Y2960853D02*
G01X-5668264Y2964917D01*
G01X-5672328Y2968981D01*
G01X-5676646Y2971013D01*
G01X-5684774Y2971013D01*
G01X-5688838Y2968981D01*
G01X-5693156Y2964917D01*
G01X-5695188Y2960853D01*
G01X-5697220Y2954503D01*
G01X-5697220Y2944343D01*
G01X-5695188Y2937993D01*
G01X-5693156Y2933929D01*
G01X-5688838Y2929865D01*
G01X-5684774Y2927833D01*
G01X-5676646Y2927833D01*
G01X-5672328Y2929865D01*
G01X-5668264Y2933929D01*
G01X-5666232Y2937993D01*
G01X-5666232Y2944343D01*
G01X-5676646Y2944343D02*
G01X-5666232Y2944343D01*
G01X-5646166Y2971013D02*
G01X-5646166Y2927833D01*
G01X-5646166Y2971013D02*
G01X-5617210Y2927833D01*
G01X-5617210Y2971013D02*
G01X-5617210Y2927833D01*
G01X-5597144Y2971013D02*
G01X-5597144Y2927833D01*
G01X-5597144Y2971013D02*
G01X-5582666Y2971013D01*
G01X-5576570Y2968981D01*
G01X-5572252Y2964917D01*
G01X-5570220Y2960853D01*
G01X-5568188Y2954503D01*
G01X-5568188Y2944343D01*
G01X-5570220Y2937993D01*
G01X-5572252Y2933929D01*
G01X-5576570Y2929865D01*
G01X-5582666Y2927833D01*
G01X-5597144Y2927833D01*
G01X-5697220Y3225013D02*
G01X-5697220Y3181833D01*
G01X-5697220Y3225013D02*
G01X-5678678Y3225013D01*
G01X-5672328Y3222981D01*
G01X-5670296Y3220949D01*
G01X-5668264Y3216885D01*
G01X-5668264Y3210789D01*
G01X-5670296Y3206471D01*
G01X-5672328Y3204439D01*
G01X-5678678Y3202407D01*
G01X-5697220Y3202407D01*
G01X-5648198Y3225013D02*
G01X-5637784Y3181833D01*
G01X-5627624Y3225013D02*
G01X-5637784Y3181833D01*
G01X-5627624Y3225013D02*
G01X-5617210Y3181833D01*
G01X-5606796Y3225013D02*
G01X-5617210Y3181833D01*
G01X-5586730Y3225013D02*
G01X-5586730Y3181833D01*
G01X-5586730Y3225013D02*
G01X-5570220Y3181833D01*
G01X-5553710Y3225013D02*
G01X-5570220Y3181833D01*
G01X-5553710Y3225013D02*
G01X-5553710Y3181833D01*
G01X-5533644Y3225013D02*
G01X-5533644Y3181833D01*
G01X-5533644Y3225013D02*
G01X-5515102Y3225013D01*
G01X-5508752Y3222981D01*
G01X-5506720Y3220949D01*
G01X-5504688Y3216885D01*
G01X-5504688Y3212821D01*
G01X-5506720Y3208503D01*
G01X-5508752Y3206471D01*
G01X-5515102Y3204439D01*
G01X-5533644Y3204439D02*
G01X-5515102Y3204439D01*
G01X-5508752Y3202407D01*
G01X-5506720Y3200375D01*
G01X-5504688Y3196311D01*
G01X-5504688Y3189961D01*
G01X-5506720Y3185897D01*
G01X-5508752Y3183865D01*
G01X-5515102Y3181833D01*
G01X-5533644Y3181833D01*
G01X-6598920Y4749013D02*
G01X-6582410Y4705833D01*
G01X-6565900Y4749013D02*
G01X-6582410Y4705833D01*
G01X-6545834Y4749013D02*
G01X-6545834Y4705833D01*
G01X-6545834Y4749013D02*
G01X-6529324Y4705833D01*
G01X-6512814Y4749013D02*
G01X-6529324Y4705833D01*
G01X-6512814Y4749013D02*
G01X-6512814Y4705833D01*
G01X-6662420Y4495013D02*
G01X-6645910Y4451833D01*
G01X-6629400Y4495013D02*
G01X-6645910Y4451833D01*
G01X-6578346Y4484853D02*
G01X-6580378Y4488917D01*
G01X-6584442Y4492981D01*
G01X-6588760Y4495013D01*
G01X-6596888Y4495013D01*
G01X-6600952Y4492981D01*
G01X-6605270Y4488917D01*
G01X-6607302Y4484853D01*
G01X-6609334Y4478503D01*
G01X-6609334Y4468343D01*
G01X-6607302Y4461993D01*
G01X-6605270Y4457929D01*
G01X-6600952Y4453865D01*
G01X-6596888Y4451833D01*
G01X-6588760Y4451833D01*
G01X-6584442Y4453865D01*
G01X-6580378Y4457929D01*
G01X-6578346Y4461993D01*
G01X-6527292Y4484853D02*
G01X-6529324Y4488917D01*
G01X-6533388Y4492981D01*
G01X-6537706Y4495013D01*
G01X-6545834Y4495013D01*
G01X-6549898Y4492981D01*
G01X-6554216Y4488917D01*
G01X-6556248Y4484853D01*
G01X-6558280Y4478503D01*
G01X-6558280Y4468343D01*
G01X-6556248Y4461993D01*
G01X-6554216Y4457929D01*
G01X-6549898Y4453865D01*
G01X-6545834Y4451833D01*
G01X-6537706Y4451833D01*
G01X-6533388Y4453865D01*
G01X-6529324Y4457929D01*
G01X-6527292Y4461993D01*
G01X-6620510Y3999713D02*
G01X-6637020Y3956533D01*
G01X-6620510Y3999713D02*
G01X-6604000Y3956533D01*
G01X-6630924Y3971011D02*
G01X-6610096Y3971011D01*
G01X-6571488Y3999713D02*
G01X-6575552Y3997681D01*
G01X-6579870Y3993617D01*
G01X-6581902Y3989553D01*
G01X-6583934Y3983203D01*
G01X-6583934Y3973043D01*
G01X-6581902Y3966693D01*
G01X-6579870Y3962629D01*
G01X-6575552Y3958565D01*
G01X-6571488Y3956533D01*
G01X-6563360Y3956533D01*
G01X-6559042Y3958565D01*
G01X-6554978Y3962629D01*
G01X-6552946Y3966693D01*
G01X-6550914Y3973043D01*
G01X-6550914Y3983203D01*
G01X-6552946Y3989553D01*
G01X-6554978Y3993617D01*
G01X-6559042Y3997681D01*
G01X-6563360Y3999713D01*
G01X-6571488Y3999713D01*
G01X-6530848Y3991585D02*
G01X-6526784Y3993617D01*
G01X-6520434Y3999713D01*
G01X-6520434Y3956533D01*
G01X-6618732Y4230853D02*
G01X-6620764Y4234917D01*
G01X-6624828Y4238981D01*
G01X-6629146Y4241013D01*
G01X-6637274Y4241013D01*
G01X-6641338Y4238981D01*
G01X-6645656Y4234917D01*
G01X-6647688Y4230853D01*
G01X-6649720Y4224503D01*
G01X-6649720Y4214343D01*
G01X-6647688Y4207993D01*
G01X-6645656Y4203929D01*
G01X-6641338Y4199865D01*
G01X-6637274Y4197833D01*
G01X-6629146Y4197833D01*
G01X-6624828Y4199865D01*
G01X-6620764Y4203929D01*
G01X-6618732Y4207993D01*
G01X-6618732Y4214343D01*
G01X-6629146Y4214343D02*
G01X-6618732Y4214343D01*
G01X-6598666Y4241013D02*
G01X-6598666Y4197833D01*
G01X-6598666Y4241013D02*
G01X-6569710Y4197833D01*
G01X-6569710Y4241013D02*
G01X-6569710Y4197833D01*
G01X-6549644Y4241013D02*
G01X-6549644Y4197833D01*
G01X-6549644Y4241013D02*
G01X-6535166Y4241013D01*
G01X-6529070Y4238981D01*
G01X-6524752Y4234917D01*
G01X-6522720Y4230853D01*
G01X-6520688Y4224503D01*
G01X-6520688Y4214343D01*
G01X-6522720Y4207993D01*
G01X-6524752Y4203929D01*
G01X-6529070Y4199865D01*
G01X-6535166Y4197833D01*
G01X-6549644Y4197833D01*
G01X-6645910Y3733013D02*
G01X-6662420Y3689833D01*
G01X-6645910Y3733013D02*
G01X-6629400Y3689833D01*
G01X-6656324Y3704311D02*
G01X-6635496Y3704311D01*
G01X-6596888Y3733013D02*
G01X-6600952Y3730981D01*
G01X-6605270Y3726917D01*
G01X-6607302Y3722853D01*
G01X-6609334Y3716503D01*
G01X-6609334Y3706343D01*
G01X-6607302Y3699993D01*
G01X-6605270Y3695929D01*
G01X-6600952Y3691865D01*
G01X-6596888Y3689833D01*
G01X-6588760Y3689833D01*
G01X-6584442Y3691865D01*
G01X-6580378Y3695929D01*
G01X-6578346Y3699993D01*
G01X-6576314Y3706343D01*
G01X-6576314Y3716503D01*
G01X-6578346Y3722853D01*
G01X-6580378Y3726917D01*
G01X-6584442Y3730981D01*
G01X-6588760Y3733013D01*
G01X-6596888Y3733013D01*
G01X-6554216Y3722853D02*
G01X-6554216Y3724885D01*
G01X-6552184Y3728949D01*
G01X-6550152Y3730981D01*
G01X-6545834Y3733013D01*
G01X-6537706Y3733013D01*
G01X-6533642Y3730981D01*
G01X-6531356Y3728949D01*
G01X-6529324Y3724885D01*
G01X-6529324Y3720821D01*
G01X-6531356Y3716503D01*
G01X-6535674Y3710407D01*
G01X-6556248Y3689833D01*
G01X-6527292Y3689833D01*
G01X-6649720Y3479013D02*
G01X-6649720Y3435833D01*
G01X-6649720Y3479013D02*
G01X-6631178Y3479013D01*
G01X-6624828Y3476981D01*
G01X-6622796Y3474949D01*
G01X-6620764Y3470885D01*
G01X-6620764Y3466821D01*
G01X-6622796Y3462503D01*
G01X-6624828Y3460471D01*
G01X-6631178Y3458439D01*
G01X-6649720Y3458439D02*
G01X-6631178Y3458439D01*
G01X-6624828Y3456407D01*
G01X-6622796Y3454375D01*
G01X-6620764Y3450311D01*
G01X-6620764Y3443961D01*
G01X-6622796Y3439897D01*
G01X-6624828Y3437865D01*
G01X-6631178Y3435833D01*
G01X-6649720Y3435833D01*
G01X-6588252Y3479013D02*
G01X-6592316Y3476981D01*
G01X-6596634Y3472917D01*
G01X-6598666Y3468853D01*
G01X-6600698Y3462503D01*
G01X-6600698Y3452343D01*
G01X-6598666Y3445993D01*
G01X-6596634Y3441929D01*
G01X-6592316Y3437865D01*
G01X-6588252Y3435833D01*
G01X-6580124Y3435833D01*
G01X-6575806Y3437865D01*
G01X-6571742Y3441929D01*
G01X-6569710Y3445993D01*
G01X-6567678Y3452343D01*
G01X-6567678Y3462503D01*
G01X-6569710Y3468853D01*
G01X-6571742Y3472917D01*
G01X-6575806Y3476981D01*
G01X-6580124Y3479013D01*
G01X-6588252Y3479013D01*
G01X-6545580Y3468853D02*
G01X-6545580Y3470885D01*
G01X-6543548Y3474949D01*
G01X-6541516Y3476981D01*
G01X-6537198Y3479013D01*
G01X-6529070Y3479013D01*
G01X-6525006Y3476981D01*
G01X-6522720Y3474949D01*
G01X-6520688Y3470885D01*
G01X-6520688Y3466821D01*
G01X-6522720Y3462503D01*
G01X-6527038Y3456407D01*
G01X-6547612Y3435833D01*
G01X-6518656Y3435833D01*
G01X-6618732Y2960853D02*
G01X-6620764Y2964917D01*
G01X-6624828Y2968981D01*
G01X-6629146Y2971013D01*
G01X-6637274Y2971013D01*
G01X-6641338Y2968981D01*
G01X-6645656Y2964917D01*
G01X-6647688Y2960853D01*
G01X-6649720Y2954503D01*
G01X-6649720Y2944343D01*
G01X-6647688Y2937993D01*
G01X-6645656Y2933929D01*
G01X-6641338Y2929865D01*
G01X-6637274Y2927833D01*
G01X-6629146Y2927833D01*
G01X-6624828Y2929865D01*
G01X-6620764Y2933929D01*
G01X-6618732Y2937993D01*
G01X-6618732Y2944343D01*
G01X-6629146Y2944343D02*
G01X-6618732Y2944343D01*
G01X-6598666Y2971013D02*
G01X-6598666Y2927833D01*
G01X-6598666Y2971013D02*
G01X-6569710Y2927833D01*
G01X-6569710Y2971013D02*
G01X-6569710Y2927833D01*
G01X-6549644Y2971013D02*
G01X-6549644Y2927833D01*
G01X-6549644Y2971013D02*
G01X-6535166Y2971013D01*
G01X-6529070Y2968981D01*
G01X-6524752Y2964917D01*
G01X-6522720Y2960853D01*
G01X-6520688Y2954503D01*
G01X-6520688Y2944343D01*
G01X-6522720Y2937993D01*
G01X-6524752Y2933929D01*
G01X-6529070Y2929865D01*
G01X-6535166Y2927833D01*
G01X-6549644Y2927833D01*
G01X-6624320Y3225013D02*
G01X-6624320Y3181833D01*
G01X-6624320Y3225013D02*
G01X-6605778Y3225013D01*
G01X-6599428Y3222981D01*
G01X-6597396Y3220949D01*
G01X-6595364Y3216885D01*
G01X-6595364Y3212821D01*
G01X-6597396Y3208503D01*
G01X-6599428Y3206471D01*
G01X-6605778Y3204439D01*
G01X-6624320Y3204439D02*
G01X-6605778Y3204439D01*
G01X-6599428Y3202407D01*
G01X-6597396Y3200375D01*
G01X-6595364Y3196311D01*
G01X-6595364Y3189961D01*
G01X-6597396Y3185897D01*
G01X-6599428Y3183865D01*
G01X-6605778Y3181833D01*
G01X-6624320Y3181833D01*
G01X-6562852Y3225013D02*
G01X-6566916Y3222981D01*
G01X-6571234Y3218917D01*
G01X-6573266Y3214853D01*
G01X-6575298Y3208503D01*
G01X-6575298Y3198343D01*
G01X-6573266Y3191993D01*
G01X-6571234Y3187929D01*
G01X-6566916Y3183865D01*
G01X-6562852Y3181833D01*
G01X-6554724Y3181833D01*
G01X-6550406Y3183865D01*
G01X-6546342Y3187929D01*
G01X-6544310Y3191993D01*
G01X-6542278Y3198343D01*
G01X-6542278Y3208503D01*
G01X-6544310Y3214853D01*
G01X-6546342Y3218917D01*
G01X-6550406Y3222981D01*
G01X-6554724Y3225013D01*
G01X-6562852Y3225013D01*
G01X-6522212Y3216885D02*
G01X-6518148Y3218917D01*
G01X-6511798Y3225013D01*
G01X-6511798Y3181833D01*
G54D10*
G01X-6949879Y5017732D02*
G01X-6949879Y4971250D01*
G01X-6946831Y4962106D01*
G01X-6940481Y4955756D01*
G01X-6931337Y4952708D01*
G01X-6924987Y4952708D01*
G01X-6915843Y4955756D01*
G01X-6909747Y4962106D01*
G01X-6906445Y4971250D01*
G01X-6906445Y5017732D01*
G01X-6833039Y5017732D02*
G01X-6864027Y4952708D01*
G01X-6876219Y5017732D02*
G01X-6833039Y5017732D01*
G01X-6079866Y2583177D02*
G01X-6144890Y2583177D01*
G01X-6079866Y2583177D02*
G01X-6144890Y2558285D01*
G01X-6079866Y2533647D02*
G01X-6144890Y2558285D01*
G01X-6079866Y2533647D02*
G01X-6144890Y2533647D01*
G01X-6079866Y2484879D02*
G01X-6082914Y2491229D01*
G01X-6089010Y2497325D01*
G01X-6095360Y2500373D01*
G01X-6104504Y2503421D01*
G01X-6119998Y2503421D01*
G01X-6129396Y2500373D01*
G01X-6135492Y2497325D01*
G01X-6141842Y2491229D01*
G01X-6144890Y2484879D01*
G01X-6144890Y2472687D01*
G01X-6141842Y2466337D01*
G01X-6135492Y2460241D01*
G01X-6129396Y2457193D01*
G01X-6119998Y2453891D01*
G01X-6104504Y2453891D01*
G01X-6095360Y2457193D01*
G01X-6089010Y2460241D01*
G01X-6082914Y2466337D01*
G01X-6079866Y2472687D01*
G01X-6079866Y2484879D01*
G01X-6079866Y2402075D02*
G01X-6144890Y2402075D01*
G01X-6079866Y2423665D02*
G01X-6079866Y2380485D01*
G01X-6079866Y2331717D02*
G01X-6082914Y2338067D01*
G01X-6089010Y2344163D01*
G01X-6095360Y2347211D01*
G01X-6104504Y2350259D01*
G01X-6119998Y2350259D01*
G01X-6129396Y2347211D01*
G01X-6135492Y2344163D01*
G01X-6141842Y2338067D01*
G01X-6144890Y2331717D01*
G01X-6144890Y2319525D01*
G01X-6141842Y2313175D01*
G01X-6135492Y2307079D01*
G01X-6129396Y2304031D01*
G01X-6119998Y2300729D01*
G01X-6104504Y2300729D01*
G01X-6095360Y2304031D01*
G01X-6089010Y2307079D01*
G01X-6082914Y2313175D01*
G01X-6079866Y2319525D01*
G01X-6079866Y2331717D01*
G01X-6079866Y2270503D02*
G01X-6144890Y2270503D01*
G01X-6079866Y2270503D02*
G01X-6079866Y2242817D01*
G01X-6082914Y2233419D01*
G01X-6085962Y2230371D01*
G01X-6092312Y2227323D01*
G01X-6098408Y2227323D01*
G01X-6104504Y2230371D01*
G01X-6107552Y2233419D01*
G01X-6110854Y2242817D01*
G01X-6110854Y2270503D01*
G01X-6110854Y2248913D02*
G01X-6144890Y2227323D01*
G01X-7465060Y3679698D02*
G01X-7458710Y3682746D01*
G01X-7452614Y3689096D01*
G01X-7449566Y3695192D01*
G01X-7449566Y3707638D01*
G01X-7452614Y3713734D01*
G01X-7458710Y3720084D01*
G01X-7465060Y3723132D01*
G01X-7474204Y3726180D01*
G01X-7489698Y3726180D01*
G01X-7499096Y3723132D01*
G01X-7505192Y3720084D01*
G01X-7511542Y3713734D01*
G01X-7514590Y3707638D01*
G01X-7514590Y3695192D01*
G01X-7511542Y3689096D01*
G01X-7505192Y3682746D01*
G01X-7499096Y3679698D01*
G01X-7462012Y3649472D02*
G01X-7458710Y3643376D01*
G01X-7449566Y3634232D01*
G01X-7514590Y3634232D01*
G54D11*
G01X-7229079Y4438193D02*
G01X-7229079Y4393489D01*
G01X-7191360Y4596968D02*
G01X-7236064Y4596968D01*
G01X-7213712Y4619320D02*
G01X-7213712Y4574616D01*
G54D10*
G01X-7025574Y4691024D02*
G01X-7019224Y4694072D01*
G01X-7013128Y4700422D01*
G01X-7010080Y4706518D01*
G01X-7010080Y4718964D01*
G01X-7013128Y4725060D01*
G01X-7019224Y4731410D01*
G01X-7025574Y4734458D01*
G01X-7034718Y4737506D01*
G01X-7050212Y4737506D01*
G01X-7059610Y4734458D01*
G01X-7065706Y4731410D01*
G01X-7072056Y4725060D01*
G01X-7075104Y4718964D01*
G01X-7075104Y4706518D01*
G01X-7072056Y4700422D01*
G01X-7065706Y4694072D01*
G01X-7059610Y4691024D01*
G01X-7019224Y4623714D02*
G01X-7013128Y4626762D01*
G01X-7010080Y4636160D01*
G01X-7010080Y4642256D01*
G01X-7013128Y4651654D01*
G01X-7022526Y4657750D01*
G01X-7037766Y4660798D01*
G01X-7053260Y4660798D01*
G01X-7065706Y4657750D01*
G01X-7072056Y4651654D01*
G01X-7075104Y4642256D01*
G01X-7075104Y4639208D01*
G01X-7072056Y4630064D01*
G01X-7065706Y4623714D01*
G01X-7056562Y4620666D01*
G01X-7053260Y4620666D01*
G01X-7044116Y4623714D01*
G01X-7037766Y4630064D01*
G01X-7034718Y4639208D01*
G01X-7034718Y4642256D01*
G01X-7037766Y4651654D01*
G01X-7044116Y4657750D01*
G01X-7053260Y4660798D01*
G01X-4457225Y5031067D02*
G01X-4457225Y5096091D01*
G01X-4457225Y5031067D02*
G01X-4497357Y5031067D01*
G01X-4457225Y5062055D02*
G01X-4482117Y5062055D01*
G01X-4527583Y5031067D02*
G01X-4527583Y5096091D01*
G01X-4570763Y5031067D02*
G01X-4570763Y5096091D01*
G01X-4527583Y5062055D02*
G01X-4570763Y5062055D01*
G01X-4600989Y5043513D02*
G01X-4607085Y5040211D01*
G01X-4616229Y5031067D01*
G01X-4616229Y5096091D01*
G01X-5161280Y6861332D02*
G01X-5161280Y6796308D01*
G01X-5161280Y6861332D02*
G01X-5133340Y6861332D01*
G01X-5124196Y6858284D01*
G01X-5121148Y6855236D01*
G01X-5117846Y6848886D01*
G01X-5117846Y6839742D01*
G01X-5121148Y6833646D01*
G01X-5124196Y6830344D01*
G01X-5133340Y6827296D01*
G01X-5161280Y6827296D01*
G01X-5069078Y6861332D02*
G01X-5075428Y6858284D01*
G01X-5081524Y6852188D01*
G01X-5084572Y6845838D01*
G01X-5087620Y6836694D01*
G01X-5087620Y6821200D01*
G01X-5084572Y6811802D01*
G01X-5081524Y6805706D01*
G01X-5075428Y6799356D01*
G01X-5069078Y6796308D01*
G01X-5056886Y6796308D01*
G01X-5050536Y6799356D01*
G01X-5044440Y6805706D01*
G01X-5041392Y6811802D01*
G01X-5038090Y6821200D01*
G01X-5038090Y6836694D01*
G01X-5041392Y6845838D01*
G01X-5044440Y6852188D01*
G01X-5050536Y6858284D01*
G01X-5056886Y6861332D01*
G01X-5069078Y6861332D01*
G01X-5007864Y6861332D02*
G01X-4992624Y6796308D01*
G01X-4977130Y6861332D02*
G01X-4992624Y6796308D01*
G01X-4977130Y6861332D02*
G01X-4961636Y6796308D01*
G01X-4946142Y6861332D02*
G01X-4961636Y6796308D01*
G01X-4915916Y6861332D02*
G01X-4915916Y6796308D01*
G01X-4915916Y6861332D02*
G01X-4875784Y6861332D01*
G01X-4915916Y6830344D02*
G01X-4891278Y6830344D01*
G01X-4915916Y6796308D02*
G01X-4875784Y6796308D01*
G01X-4845558Y6861332D02*
G01X-4845558Y6796308D01*
G01X-4845558Y6861332D02*
G01X-4817872Y6861332D01*
G01X-4808474Y6858284D01*
G01X-4805426Y6855236D01*
G01X-4802378Y6848886D01*
G01X-4802378Y6842790D01*
G01X-4805426Y6836694D01*
G01X-4808474Y6833646D01*
G01X-4817872Y6830344D01*
G01X-4845558Y6830344D01*
G01X-4823968Y6830344D02*
G01X-4802378Y6796308D01*
G54D11*
G01X-9442907Y5476479D02*
G01X-9487611Y5476479D01*
G01X-9284132Y5438760D02*
G01X-9284132Y5483464D01*
G01X-9261780Y5461112D02*
G01X-9306484Y5461112D01*
G54D10*
G01X-9190076Y5272974D02*
G01X-9187028Y5266624D01*
G01X-9180678Y5260528D01*
G01X-9174582Y5257480D01*
G01X-9162136Y5257480D01*
G01X-9156040Y5260528D01*
G01X-9149690Y5266624D01*
G01X-9146642Y5272974D01*
G01X-9143594Y5282118D01*
G01X-9143594Y5297612D01*
G01X-9146642Y5307010D01*
G01X-9149690Y5313106D01*
G01X-9156040Y5319456D01*
G01X-9162136Y5322504D01*
G01X-9174582Y5322504D01*
G01X-9180678Y5319456D01*
G01X-9187028Y5313106D01*
G01X-9190076Y5307010D01*
G01X-9223350Y5272974D02*
G01X-9223350Y5269926D01*
G01X-9226398Y5263576D01*
G01X-9229446Y5260528D01*
G01X-9235542Y5257480D01*
G01X-9247988Y5257480D01*
G01X-9254338Y5260528D01*
G01X-9257386Y5263576D01*
G01X-9260434Y5269926D01*
G01X-9260434Y5276022D01*
G01X-9257386Y5282118D01*
G01X-9251036Y5291516D01*
G01X-9220302Y5322504D01*
G01X-9263482Y5322504D01*
G01X-8694898Y5865238D02*
G01X-8697946Y5871588D01*
G01X-8704296Y5877684D01*
G01X-8710392Y5880732D01*
G01X-8722838Y5880732D01*
G01X-8728934Y5877684D01*
G01X-8735284Y5871588D01*
G01X-8738332Y5865238D01*
G01X-8741380Y5856094D01*
G01X-8741380Y5840600D01*
G01X-8738332Y5831202D01*
G01X-8735284Y5825106D01*
G01X-8728934Y5818756D01*
G01X-8722838Y5815708D01*
G01X-8710392Y5815708D01*
G01X-8704296Y5818756D01*
G01X-8697946Y5825106D01*
G01X-8694898Y5831202D01*
G01X-8633938Y5880732D02*
G01X-8664672Y5837552D01*
G01X-8618444Y5837552D01*
G01X-8633938Y5880732D02*
G01X-8633938Y5815708D01*
G01X-10329774Y6859334D02*
G01X-10329774Y6794310D01*
G01X-10286340Y6859334D02*
G01X-10286340Y6794310D01*
G01X-10329774Y6828346D02*
G01X-10286340Y6828346D01*
G01X-10256114Y6846888D02*
G01X-10250018Y6850190D01*
G01X-10240874Y6859334D01*
G01X-10240874Y6794310D01*
G04 Text End*

G04 PolygonModel Start*
G54D13*
G01X-9725518Y5151293D02*
G01X-9405201Y5151293D01*
G01X-9984885Y2951297D02*
G01X-10305199Y2951297D01*
G01X-10305199Y2951297D02*
G01X-10305199Y5151293D01*
G01X-10305199Y5151293D02*
G01X-9984882Y5151293D01*
G01X-9405201Y5151293D02*
G01X-9405201Y2951297D01*
G01X-9405201Y2951297D02*
G01X-9725515Y2951297D01*
G01X-8212198Y2655600D02*
G01X-8212198Y3135600D01*
G01X-7942199Y3135600D01*
G01X-7942199Y2655600D01*
G01X-8212198Y2655600D01*
G01X-8618202Y4306397D02*
G01X-8298198Y4306400D01*
G01X-8298198Y4306397D02*
G01X-8298198Y4126400D01*
G01X-8298198Y4126403D02*
G01X-8618202Y4126400D01*
G01X-8618202Y4126403D02*
G01X-8618202Y4306400D01*
G01X-8630902Y5258897D02*
G01X-8310898Y5258900D01*
G01X-8310898Y5258897D02*
G01X-8310898Y5078900D01*
G01X-8310898Y5078903D02*
G01X-8630902Y5078900D01*
G01X-8630902Y5078903D02*
G01X-8630902Y5258900D01*
G01X-8605502Y3747597D02*
G01X-8285498Y3747600D01*
G01X-8285498Y3747597D02*
G01X-8285498Y3567600D01*
G01X-8285498Y3567603D02*
G01X-8605502Y3567600D01*
G01X-8605502Y3567603D02*
G01X-8605502Y3747600D01*
G01X-8630902Y4788997D02*
G01X-8310898Y4789000D01*
G01X-8310898Y4788997D02*
G01X-8310898Y4609000D01*
G01X-8310898Y4609003D02*
G01X-8630902Y4609000D01*
G01X-8630902Y4609003D02*
G01X-8630902Y4789000D01*
G01X-8961498Y2655600D02*
G01X-8961498Y3135600D01*
G01X-8691499Y3135600D01*
G01X-8691499Y2655600D01*
G01X-8961498Y2655600D01*
G01X-6944799Y4898098D02*
G01X-5094790Y4898098D01*
G01X-5094790Y4898098D02*
G01X-5094790Y2798102D01*
G01X-5094790Y2798102D02*
G01X-6944799Y2798102D01*
G01X-6944799Y2798102D02*
G01X-6944799Y4898098D01*
G01X-6199602Y1054103D02*
G01X-6199602Y2578097D01*
G01X-6449598Y2578097D02*
G01X-6449598Y1054103D01*
G01X-6199602Y1054103D02*
G01X-6449598Y1054103D01*
G01X-6199602Y2578097D02*
G01X-6449598Y2578097D01*
G01X-6199500Y2324097D02*
G01X-6449598Y2324097D01*
G01X-7243702Y4075400D02*
G01X-7243702Y3595400D01*
G01X-7513701Y3595400D01*
G01X-7513701Y4075400D01*
G01X-7243702Y4075400D01*
G01X-7239000Y4279900D02*
G01X-7518400Y4279900D01*
G36*
G01X-7219947Y4286247D02*
G01X-7537447Y4286247D01*
G01X-7536810Y4285610D01*
G03X-7385047Y4222747I151762J151760D01*
G01X-7367989Y4222747D01*
G03X-7245347Y4273547I-0J173441D01*
G01X-7219947Y4286247D01*
G37*
G01X-4589607Y5471018D02*
G01X-4589607Y5150701D01*
G01X-6789603Y5730385D02*
G01X-6789603Y6050699D01*
G01X-6789603Y6050699D02*
G01X-4589607Y6050699D01*
G01X-4589607Y6050699D02*
G01X-4589607Y5730382D01*
G01X-4589607Y5150701D02*
G01X-6789603Y5150701D01*
G01X-6789603Y5150701D02*
G01X-6789603Y5471015D01*
G01X-4902200Y6741698D02*
G01X-4902200Y6491699D01*
G01X-4394302Y6741698D02*
G01X-4394302Y6491699D01*
G01X-5156200Y6741698D02*
G01X-4394302Y6741698D01*
G01X-5156200Y6491699D02*
G01X-5156200Y6741698D01*
G01X-4394200Y6491699D02*
G01X-5156200Y6491699D01*
G01X-9601200Y5486400D02*
G01X-9601200Y5765800D01*
G36*
G01X-9594853Y5467347D02*
G01X-9594853Y5784847D01*
G01X-9595490Y5784210D01*
G03X-9658353Y5632447I151760J-151762D01*
G01X-9658353Y5615389D01*
G03X-9607553Y5492747I173441J0D01*
G01X-9594853Y5467347D01*
G37*
G01X-8736300Y5761098D02*
G01X-8256300Y5761098D01*
G01X-8256300Y5491099D01*
G01X-8736300Y5491099D01*
G01X-8736300Y5761098D01*
G01X-10324694Y6489118D02*
G01X-10044633Y6489118D01*
G01X-10044633Y6489118D02*
G01X-10044633Y6239701D01*
G01X-10324694Y6239701D02*
G01X-5194704Y6239701D01*
G01X-5194704Y6239701D02*
G01X-5194704Y6739700D01*
G01X-5194704Y6739700D02*
G01X-10324694Y6739700D01*
G01X-10324694Y6739700D02*
G01X-10324694Y6239701D01*

G04 Circle Start*
G01X-7630907Y4481830D02*
G03X-7129714Y4481830I250596J0D01*
G03X-7630907Y4481830I-250596J0D01*
G01X-9649866Y5627710D02*
G03X-9148674Y5627710I250596J0D01*
G03X-9649866Y5627710I-250596J0D01*
G04 Circle End*

M02*

