G04 Layer: DrillDrawingLayer*
G04 EasyEDA Pro v2.2.47.7, 2026-05-01 11:58:30*
G04 Gerber Generator version 0.3*
G04 Scale: 100 percent, Rotated: No, Reflected: No*
G04 Dimensions in millimeters*
G04 Leading zeros omitted, absolute positions, 4 integers and 5 decimals*
G04 Generated by one-click*
G04 Object Configs: Pad,Via,Track,Text,Image,Dimension,BoardOutline,BoardCutout,CopperFilled,SolidRegion,FPCStiffener,Line,PlaneZone,ComponentProperty,ComponentSilkscreen,TearDrop*
G04 Layer Configs: 1,2,3,4,5,6,7,8,9,10,11,13,14,56*
G04 Copper Areas: 0*
%FSLAX45Y45*%
%MOMM*%
%AMIconRect*4,1,4,0.28,-0.28,-0.28,-0.28,-0.28,0.28,0.28,0.28,0.28,-0.28,0*4,0,4,0.233333,-0.233333,0.233333,0.233333,-0.233333,0.233333,-0.233333,-0.233333,0.233333,-0.233333,0*%
%AMIconTriangle*4,1,3,-0.339593,0.240473,0.339593,0.240473,0,-0.37884,-0.339593,0.240473,0*4,0,3,-0.265673,0.19404,0,-0.27342,0.266233,0.19404,-0.265673,0.19404,0*%
%AMIconStar6*4,1,12,0.12068,0.20888,0.298527,0.172713,0.241313,0,0.298527,-0.17206,0.12068,-0.208227,0,-0.344073,-0.120073,-0.208227,-0.298573,-0.17206,-0.240707,0,-0.298573,0.17206,-0.120073,0.20888,0,0.344073,0.12068,0.20888,0*4,0,12,-0.000467,0.273467,-0.090067,0.171733,-0.237533,0.136733,-0.193667,-0.007467,-0.237533,-0.1372,-0.090067,-0.171733,-0.000467,-0.273933,0.090067,-0.171733,0.237533,-0.1372,0.194133,0.007,0.237533,0.1372,0.090067,0.171267,-0.000467,0.273467,0*%
%AMIconStar4*4,1,8,-0.311733,0.311733,0,0.202533,0.311733,0.311733,0.202533,0,0.311733,-0.311733,0,-0.202533,-0.304407,-0.311733,-0.202533,0,-0.311733,0.311733,0*4,0,8,0.233333,-0.233333,0.1512,0,0.233333,0.233333,0,0.1512,-0.233333,0.233333,-0.1512,0,-0.233333,-0.233333,0,-0.1512,0.233333,-0.233333,0*%
%AMIconPlus*4,1,12,0.1736,-0.28,-0.1736,-0.28,-0.1736,-0.1736,-0.28,-0.1736,-0.28,0.1736,-0.1736,0.1736,-0.1736,0.28,0.1736,0.28,0.1736,0.1736,0.28,0.1736,0.28,-0.1736,0.1736,-0.1736,0.1736,-0.28,0*4,0,12,0.126933,-0.233333,0.126933,-0.126933,0.233333,-0.126933,0.233333,0.126933,0.126933,0.126933,0.126933,0.233333,-0.126933,0.233333,-0.126933,0.126933,-0.233333,0.126933,-0.233333,-0.126933,-0.126933,-0.126933,-0.126933,-0.233333,0.126933,-0.233333,0*%
%ADD10IconRect*%
%ADD11C,0.616X0.522667*%
%ADD12IconTriangle*%
%ADD13IconStar6*%
%ADD14IconStar4*%
%ADD15IconPlus*%
G75*


G04 Drill Drawing Start*
G54D10*
G01X-9504350Y5626110D03*
G01X-9270060Y5626110D03*
G01X-7378710Y4376750D03*
G01X-7378710Y4605960D03*
G54D11*
G01X-6324600Y1181100D03*
G01X-6324600Y1435100D03*
G01X-6324600Y1689100D03*
G01X-6324600Y1943100D03*
G01X-6324600Y2197100D03*
G01X-6324600Y2451100D03*
G54D12*
G01X-10172700Y6362700D03*
G01X-9855200Y2921305D03*
G01X-9855200Y5181295D03*
G01X-9156700Y6362700D03*
G01X-8902700Y6362700D03*
G01X-8902700Y6616700D03*
G01X-8648700Y6362700D03*
G01X-6819595Y5600700D03*
G01X-6616700Y6362700D03*
G01X-6362700Y6362700D03*
G01X-5346700Y6362700D03*
G01X-5029200Y6616700D03*
G01X-4775200Y6616700D03*
G01X-4559605Y5600700D03*
G54D13*
G01X-8830894Y4699000D03*
G01X-8830894Y5168900D03*
G01X-8826500Y2768600D03*
G01X-8826500Y3022600D03*
G01X-8818194Y4216400D03*
G01X-8805494Y3657600D03*
G01X-8639810Y5626100D03*
G01X-8351520Y5626100D03*
G01X-8110906Y4699000D03*
G01X-8110906Y5168900D03*
G01X-8098206Y4216400D03*
G01X-8085506Y3657600D03*
G01X-8077200Y2768600D03*
G01X-8077200Y3022600D03*
G01X-7378700Y3708400D03*
G01X-7378700Y3962400D03*
G54D14*
G01X-6781800Y2946375D03*
G01X-6781800Y3200375D03*
G01X-6781800Y3454375D03*
G01X-6781800Y3708375D03*
G01X-6781800Y3962375D03*
G01X-6781800Y4216375D03*
G01X-6781800Y4470375D03*
G01X-6781800Y4724400D03*
G01X-5257800Y2946375D03*
G01X-5257800Y3200375D03*
G01X-5257800Y3454375D03*
G01X-5257800Y3708375D03*
G01X-5257800Y3962375D03*
G01X-5257800Y4216375D03*
G01X-5257800Y4470375D03*
G01X-5257800Y4724375D03*
G54D15*
G01X-10172700Y6616700D03*
G01X-9918700Y6362700D03*
G01X-9918700Y6616700D03*
G01X-9664700Y6362700D03*
G01X-9664700Y6616700D03*
G01X-9410700Y6362700D03*
G01X-9410700Y6616700D03*
G01X-9156700Y6616700D03*
G01X-8140700Y6362700D03*
G01X-8140700Y6616700D03*
G01X-7886700Y6362700D03*
G01X-7886700Y6616700D03*
G01X-7632700Y6362700D03*
G01X-7632700Y6616700D03*
G01X-7378700Y6362700D03*
G01X-7378700Y6616700D03*
G01X-7124700Y6362700D03*
G01X-7124700Y6616700D03*
G01X-6870700Y6362700D03*
G01X-6870700Y6616700D03*
G01X-6616700Y6616700D03*
G01X-6362700Y6616700D03*
G01X-6108700Y6616700D03*
G01X-5854700Y6616700D03*
G01X-4521200Y6616700D03*
G04 Drill Drawing End*

M02*

