G04 Layer: BottomSolderMaskLayer*
G04 EasyEDA Pro v2.2.47.7, 2026-05-01 11:58:30*
G04 Gerber Generator version 0.3*
G04 Scale: 100 percent, Rotated: No, Reflected: No*
G04 Dimensions in millimeters*
G04 Leading zeros omitted, absolute positions, 4 integers and 5 decimals*
G04 Generated by one-click*
G04 Object Configs: Pad,Via,Track,Text,Image,Dimension,BoardOutline,BoardCutout,CopperFilled,SolidRegion,FPCStiffener,Line,PlaneZone,ComponentProperty,ComponentSilkscreen,TearDrop*
G04 Layer Configs: 1,2,3,4,5,6,7,8,9,10,11,13,14,56*
G04 Copper Areas: 0*
%FSLAX45Y45*%
%MOMM*%
%AMRoundRect*1,1,$1,$2,$3*1,1,$1,$4,$5*1,1,$1,0-$2,0-$3*1,1,$1,0-$4,0-$5*20,1,$1,$2,$3,$4,$5,0*20,1,$1,$4,$5,0-$2,0-$3,0*20,1,$1,0-$2,0-$3,0-$4,0-$5,0*20,1,$1,0-$4,0-$5,$2,$3,0*4,1,4,$2,$3,$4,$5,0-$2,0-$3,0-$4,0-$5,$2,$3,0*%
%ADD10C,2.3016*%
%ADD11C,1.6256*%
%ADD12C,1.6016*%
%ADD13RoundRect,0.18181X-0.77269X0.77269X0.77269X0.77269*%
%ADD14C,1.7272*%
%ADD15C,1.9016*%
%ADD16RoundRect,0.09645X-0.90257X-0.90257X-0.90257X0.90257*%
%ADD17C,1.70002*%
%ADD18RoundRect,0.1061X-0.85271X0.85271X0.85271X0.85271*%
%ADD19RoundRect,0.09618X-0.85271X0.85271X0.85271X0.85271*%
%ADD20C,1.8016*%
G75*


G04 Pad Start*
G54D10*
G01X-9855200Y5181295D03*
G01X-9855200Y2921305D03*
G54D11*
G01X-8077200Y2768600D03*
G01X-8077200Y3022600D03*
G54D12*
G01X-8818194Y4216400D03*
G01X-8098206Y4216400D03*
G01X-8830894Y5168900D03*
G01X-8110906Y5168900D03*
G01X-8805494Y3657600D03*
G01X-8085506Y3657600D03*
G01X-8830894Y4699000D03*
G01X-8110906Y4699000D03*
G54D11*
G01X-8826500Y2768600D03*
G01X-8826500Y3022600D03*
G54D13*
G01X-6781800Y4724400D03*
G54D14*
G01X-6781800Y4470375D03*
G01X-6781800Y4216375D03*
G01X-6781800Y3962375D03*
G01X-6781800Y3708375D03*
G01X-6781800Y3454375D03*
G01X-6781800Y3200375D03*
G01X-6781800Y2946375D03*
G01X-5257800Y2946375D03*
G01X-5257800Y3200375D03*
G01X-5257800Y3454375D03*
G01X-5257800Y3708375D03*
G01X-5257800Y3962375D03*
G01X-5257800Y4216375D03*
G01X-5257800Y4470375D03*
G01X-5257800Y4724375D03*
G54D15*
G01X-6324600Y1181100D03*
G01X-6324600Y1435100D03*
G01X-6324600Y1689100D03*
G01X-6324600Y1943100D03*
G01X-6324600Y2197100D03*
G54D16*
G01X-6324600Y2451100D03*
G54D11*
G01X-7378700Y3962400D03*
G01X-7378700Y3708400D03*
G54D17*
G01X-7378710Y4376750D03*
G01X-7378710Y4605960D03*
G54D10*
G01X-4559605Y5600700D03*
G01X-6819595Y5600700D03*
G54D19*
G01X-5029200Y6616700D03*
G54D20*
G01X-4775200Y6616700D03*
G01X-4521200Y6616700D03*
G54D17*
G01X-9504350Y5626110D03*
G01X-9270060Y5626110D03*
G54D11*
G01X-8639810Y5626100D03*
G01X-8351520Y5626100D03*
G54D19*
G01X-10172700Y6362700D03*
G54D20*
G01X-10172700Y6616700D03*
G01X-9918700Y6362700D03*
G01X-9918700Y6616700D03*
G01X-9664700Y6362700D03*
G01X-9664700Y6616700D03*
G01X-9410700Y6362700D03*
G01X-9410700Y6616700D03*
G01X-9156700Y6362700D03*
G01X-9156700Y6616700D03*
G01X-8902700Y6362700D03*
G01X-8902700Y6616700D03*
G01X-8648700Y6362700D03*
G01X-8140700Y6362700D03*
G01X-8140700Y6616700D03*
G01X-7886700Y6362700D03*
G01X-7886700Y6616700D03*
G01X-7632700Y6362700D03*
G01X-7632700Y6616700D03*
G01X-7378700Y6362700D03*
G01X-7378700Y6616700D03*
G01X-7124700Y6362700D03*
G01X-7124700Y6616700D03*
G01X-6870700Y6362700D03*
G01X-6870700Y6616700D03*
G01X-6616700Y6362700D03*
G01X-6616700Y6616700D03*
G01X-6362700Y6362700D03*
G01X-6362700Y6616700D03*
G01X-6108700Y6616700D03*
G01X-5854700Y6616700D03*
G01X-5346700Y6362700D03*
G04 Pad End*

M02*

